<svg width="251" height="195" xmlns="http://www.w3.org/2000/svg" xmlns:xlink="http://www.w3.org/1999/xlink"><defs><filter x="-95%" y="-141.7%" width="290%" height="416.7%" filterUnits="objectBoundingBox" id="b"><feOffset dy="1" in="SourceAlpha" result="shadowOffsetOuter1"/><feGaussianBlur stdDeviation="3" in="shadowOffsetOuter1" result="shadowBlurOuter1"/><feColorMatrix values="0 0 0 0 0.180392157 0 0 0 0 0.584313725 0 0 0 0 0.894117647 0 0 0 0.85 0" in="shadowBlurOuter1"/></filter><filter x="-95%" y="-141.7%" width="290%" height="416.7%" filterUnits="objectBoundingBox" id="d"><feOffset dy="1" in="SourceAlpha" result="shadowOffsetOuter1"/><feGaussianBlur stdDeviation="3" in="shadowOffsetOuter1" result="shadowBlurOuter1"/><feColorMatrix values="0 0 0 0 0.180392157 0 0 0 0 0.584313725 0 0 0 0 0.894117647 0 0 0 0.85 0" in="shadowBlurOuter1"/></filter><filter x="-95%" y="-141.7%" width="290%" height="416.7%" filterUnits="objectBoundingBox" id="f"><feOffset dy="1" in="SourceAlpha" result="shadowOffsetOuter1"/><feGaussianBlur stdDeviation="3" in="shadowOffsetOuter1" result="shadowBlurOuter1"/><feColorMatrix values="0 0 0 0 0.180392157 0 0 0 0 0.584313725 0 0 0 0 0.894117647 0 0 0 0.85 0" in="shadowBlurOuter1"/></filter><filter x="-95%" y="-141.7%" width="290%" height="416.7%" filterUnits="objectBoundingBox" id="h"><feOffset dy="1" in="SourceAlpha" result="shadowOffsetOuter1"/><feGaussianBlur stdDeviation="3" in="shadowOffsetOuter1" result="shadowBlurOuter1"/><feColorMatrix values="0 0 0 0 0.180392157 0 0 0 0 0.584313725 0 0 0 0 0.894117647 0 0 0 0.85 0" in="shadowBlurOuter1"/></filter><rect id="c" x="30" y="27" width="10" height="6" rx="3"/><rect id="e" x="150" y="77" width="10" height="6" rx="3"/><rect id="g" x="80" y="127" width="10" height="6" rx="3"/><rect id="i" x="200" y="177" width="10" height="6" rx="3"/><linearGradient x1="0%" y1="50%" x2="96.502%" y2="50%" id="a"><stop stop-color="#CCC" stop-opacity="0" offset="0%"/><stop stop-color="#CCC" offset="9.775%"/><stop stop-color="#CCC" offset="100%"/></linearGradient></defs><g fill="none" fill-rule="evenodd"><path d="M0 30h100c30 0 40-30 70-30h80" stroke="url(#a)" stroke-linecap="square" transform="translate(0 5)"/><g transform="translate(0 5)"><use fill="#000" filter="url(#b)" xlink:href="#c"/><use fill="#2E95E4" xlink:href="#c"/></g><path d="M0 50h30c30 0 40 30 70 30h150" stroke="url(#a)" stroke-linecap="square" transform="translate(0 5)"/><g transform="translate(0 5)"><use fill="#000" filter="url(#d)" xlink:href="#e"/><use fill="#2E95E4" xlink:href="#e"/></g><path d="M0 130h150c30 0 40-30 70-30h30" stroke="url(#a)" stroke-linecap="square" transform="translate(0 5)"/><g transform="translate(0 5)"><use fill="#000" filter="url(#f)" xlink:href="#g"/><use fill="#2E95E4" xlink:href="#g"/></g><path d="M0 150h80c30 0 40 30 70 30h100" stroke="url(#a)" stroke-linecap="square" transform="translate(0 5)"/><g transform="translate(0 5)"><use fill="#000" filter="url(#h)" xlink:href="#i"/><use fill="#2E95E4" xlink:href="#i"/></g></g></svg>